<svg viewBox="0 0 185 310" xmlns="http://www.w3.org/2000/svg" class=""><path fill-rule="evenodd" clip-rule="evenodd" d="M38.292 0.324993C33.325 1.88699 22.355 19.611 18.735 31.922C17.909 34.733 17.804 35.096 17.555 36.016C14.106 48.75 13.127 63.354 14.911 75.448C15.488 79.36 16.528 84.14 17.438 87.06C18.439 90.271 19.255 92.598 19.852 93.943C20.024 94.329 20.164 94.681 20.164 94.725C20.164 94.985 22.569 99.962 23.52 101.671C32.353 117.543 47.672 130.537 66.363 138.011C67.649 138.526 68.852 139.016 69.036 139.101C69.22 139.186 69.708 139.397 70.122 139.57C72.034 140.367 72.498 140.577 74.301 141.461C75.359 141.979 76.732 142.714 77.353 143.094C77.974 143.474 78.516 143.785 78.558 143.785C78.909 143.785 83.026 146.795 85.407 148.792C96.743 158.303 103.364 168.745 105.064 179.792C105.41 182.043 104.653 185.265 103.168 187.867C102.976 188.205 102.735 188.631 102.634 188.815C101.626 190.647 99.215 193.403 96.93 195.336C93.92 197.883 90.014 200.137 85.494 201.934C84.988 202.135 84.424 202.359 84.241 202.433C84.057 202.506 83.418 202.736 82.82 202.943C82.223 203.15 81.663 203.383 81.576 203.46C81.488 203.538 81.315 203.602 81.189 203.602C80.797 203.602 66.799 209.278 66.363 209.614C66.271 209.685 66.008 209.8 65.779 209.871C65.55 209.941 64.911 210.207 64.359 210.461C63.807 210.715 62.603 211.26 61.684 211.673C53.831 215.202 43.516 220.355 38.492 223.258C37.959 223.567 37.495 223.819 37.461 223.819C37.427 223.819 36.736 224.204 35.925 224.676C34.153 225.705 33.554 226.05 32.766 226.496C31.594 227.16 25.399 231.085 23.84 232.151C19.07 235.414 16.777 237.155 13.171 240.255C6.11698 246.317 1.85399 252.242 0.77199 257.486C-0.14501 261.935 8.26099 266.168 19.997 267.166C20.686 267.225 22.046 267.35 23.02 267.445C23.993 267.539 28.542 267.685 33.128 267.769C42.623 267.943 44.612 268.112 48.067 269.041C53.112 270.397 56.254 273.327 56.254 276.675C56.254 279.818 53.483 283.592 47.9 288.053C47.486 288.384 46.876 288.874 46.543 289.143C46.21 289.412 44.368 290.804 42.449 292.235C38.146 295.446 36.772 296.488 36.274 296.918C36.062 297.102 35.419 297.628 34.847 298.088C28.263 303.371 27.445 307.442 32.612 309.22C33.482 309.519 41.064 309.535 44.14 309.244C45.335 309.131 47.816 308.959 49.654 308.862C57.117 308.47 65.481 307.402 72.461 305.951C73.15 305.807 74.316 305.573 75.051 305.43C75.786 305.287 76.613 305.101 76.889 305.018C77.165 304.935 78.142 304.679 79.061 304.45C82.269 303.651 85.601 302.67 88.167 301.767C90.496 300.948 92.29 300.287 92.929 300.013C93.297 299.855 94.387 299.4 95.352 299.002C97.948 297.929 102.768 295.448 105.711 293.668C107.889 292.352 113.253 288.892 113.815 288.443C113.906 288.369 114.282 288.087 114.65 287.816C118.682 284.839 121.639 282.06 123.632 279.374C123.973 278.915 124.331 278.446 124.427 278.332C124.712 277.993 126.596 274.551 126.598 274.366C126.598 274.272 126.709 273.982 126.845 273.722C127.375 272.705 128.28 269.571 128.687 267.344C129.271 264.144 129.579 260.581 129.69 255.732C129.795 251.216 129.557 241.494 129.278 238.887C128.096 227.823 122.655 219.9 113.063 215.27C106.273 211.993 105.932 211.809 103.957 210.358C97.901 205.907 97.758 199.714 103.614 195.498C108.461 192.007 110.838 189.398 112.841 185.368C113.238 184.567 113.564 183.861 113.564 183.799C113.564 183.736 113.668 183.448 113.794 183.159C115.913 178.314 116.3 171.023 114.712 165.84C114.529 165.243 114.317 164.557 114.24 164.317C114.105 163.892 114.117 163.883 114.626 164.011C116.591 164.508 120.524 165.835 122.503 166.669C122.871 166.824 123.51 167.093 123.923 167.266C132.723 170.951 142.339 177.98 148.966 185.573C151.734 188.744 152.538 189.763 154.7 192.841C160.276 200.78 164.262 211.389 166.184 223.401C166.933 228.085 167.274 238.279 166.862 243.702C166.789 244.667 166.645 247.073 166.541 249.048C166.437 251.024 166.242 253.274 166.107 254.047C165.784 255.898 165.815 255.884 166.905 253.685C169.36 248.735 170.996 244.447 172.72 238.439C172.799 238.163 172.971 237.561 173.102 237.102C173.233 236.642 173.504 235.515 173.704 234.596C173.904 233.677 174.138 232.624 174.225 232.256C175.444 227.07 176.068 218.574 175.653 212.791C175.259 207.291 174.229 201.2 173.224 198.422C173.141 198.192 172.941 197.553 172.779 197.002C172.473 195.957 171.032 192.024 170.636 191.154C170.51 190.878 170.169 190.126 169.878 189.483C168.683 186.841 165.796 181.693 164.713 180.271C164.563 180.075 164.328 179.746 164.19 179.539C160.877 174.585 155.252 168.469 149.902 164.003C149.076 163.314 148.363 162.712 148.317 162.666C148.095 162.443 144.364 159.623 143.388 158.941C139.212 156.02 134.913 153.371 130.105 150.757C129.6 150.482 123.134 147.226 115.736 143.521C108.338 139.816 101.308 136.268 100.114 135.636C98.919 135.003 96.889 133.937 95.602 133.266C92.215 131.499 90.491 130.583 89.921 130.25C89.646 130.088 88.894 129.675 88.251 129.332C86.275 128.277 84.932 127.547 84.408 127.242C84.132 127.082 83.53 126.743 83.071 126.488C82.612 126.233 81.822 125.79 81.317 125.504C80.811 125.218 79.999 124.759 79.511 124.485C74.97 121.929 64.863 115.646 63.188 114.338C63.096 114.267 61.938 113.4 60.614 112.413C57.801 110.317 57.405 110.017 57.151 109.787C57.046 109.693 56.135 108.877 55.125 107.972C52.46 105.585 50.194 103.023 48.444 100.417C47.533 99.062 45.561 95.129 45.561 94.669C45.561 94.571 45.492 94.36 45.408 94.201C45.149 93.706 44.729 92.366 43.88 89.316C43.79 88.994 43.411 87.49 43.037 85.974C42.197 82.563 42.242 82.602 41.339 84.495C40.062 87.175 39.663 88.558 39.739 90.042C39.792 91.065 39.772 91.143 39.481 91.05C38.66 90.789 37.102 89.693 35.996 88.601C23.743 76.496 32.64 58.968 51.659 57.742C61.941 57.079 65.244 56.333 71.33 53.294C75.623 51.151 81.798 46.897 84.439 44.262C86.523 42.184 84.811 40.002 79.759 38.296C78.824 37.98 76.968 37.37 75.636 36.941C73.416 36.226 67.557 34.106 66.363 33.585C66.087 33.465 65.508 33.211 65.077 33.02C64.645 32.83 64.256 32.674 64.212 32.674C64.168 32.674 63.543 32.405 62.824 32.076C49.224 25.853 48.014 24.588 45.806 14.295C45.658 13.606 45.47 12.741 45.388 12.373C45.306 12.006 45.193 11.442 45.136 11.12C45.079 10.799 44.966 10.31 44.885 10.034C44.804 9.75899 44.578 8.85599 44.382 8.02899C42.991 2.13899 40.908 -0.497007 38.292 0.324993ZM45.393 237.277C53.297 239.905 54.255 250.927 46.907 254.694C40.312 258.075 32.726 253.245 33.067 245.883C33.355 239.657 39.548 235.333 45.393 237.277ZM68.153 247.719C69.046 248.064 71.319 249.184 72.545 249.884C72.912 250.094 73.551 250.454 73.965 250.685C74.378 250.915 74.742 251.168 74.772 251.246C74.803 251.324 74.898 251.388 74.983 251.388C75.277 251.388 77.986 253.365 80.398 255.34C88.488 261.965 91.602 269.885 89.324 278.038C88.911 279.517 88.462 280.906 88.238 281.405C88.107 281.694 87.999 281.995 87.998 282.073C87.988 282.64 85.251 287.413 84.041 288.974C79.864 294.361 74.637 298.487 69.203 300.687C69.019 300.761 68.606 300.933 68.284 301.069C61.252 304.034 58.998 302.158 61.994 295.832C63.334 293.002 64.747 291.427 69.553 287.404C75.643 282.305 78.863 277.684 78.874 274.028C78.882 270.985 77.951 269.623 71.049 262.582C68.534 260.017 67.296 258.645 66.147 257.152C62.202 252.025 63.499 245.921 68.153 247.719ZM163.856 280.289C153.004 281.624 139.604 286.078 125.594 293.009C120.622 295.468 120.227 296.705 124.212 297.342C124.819 297.439 125.398 297.57 125.497 297.633C125.596 297.696 129.324 297.798 133.781 297.86C138.238 297.921 142.825 298.066 143.973 298.182C146.62 298.449 157.152 298.464 159.429 298.205C169.415 297.067 177.901 293.811 181.458 289.751C181.627 289.558 182.046 289.099 182.388 288.731C184.503 286.459 184.571 286.149 183.228 284.905C180.888 282.739 178.417 281.475 174.8 280.593C173.314 280.231 165.985 280.028 163.856 280.289Z"></path></svg>