<svg width="98" height="110" viewBox="0 0 98 110" fill="none" xmlns="http://www.w3.org/2000/svg">
<rect x="2" y="5" width="91" height="102" rx="5" fill="#FFF8F3"/>
<path d="M44.9152 87.0826V13.7522C44.9152 13.0824 44.7228 12.5361 44.342 12.1042C43.9612 11.6724 43.4705 11.4609 42.8738 11.4609H12.2485C11.6518 11.4609 11.165 11.6768 10.7803 12.1042C10.3955 12.5316 10.2071 13.0824 10.2071 13.7522V87.0826C10.2071 87.7524 10.3995 88.2987 10.7803 88.7306C11.1611 89.1624 11.6518 89.3739 12.2485 89.3739H42.8738C43.4705 89.3739 43.9573 89.158 44.342 88.7306C44.7268 88.3032 44.9152 87.7524 44.9152 87.0826ZM87.789 59.5826V13.7522C87.789 13.0824 87.5966 12.5361 87.2158 12.1042C86.835 11.6724 86.3443 11.4609 85.7475 11.4609H55.1223C54.5256 11.4609 54.0388 11.6768 53.654 12.1042C53.2693 12.5316 53.0809 13.0824 53.0809 13.7522V59.5826C53.0809 60.2524 53.2732 60.7987 53.654 61.2306C54.0349 61.6624 54.5256 61.8739 55.1223 61.8739H85.7475C86.3443 61.8739 86.8311 61.658 87.2158 61.2306C87.6005 60.8032 87.789 60.2524 87.789 59.5826ZM98 4.5826V105.413C98 106.656 97.5956 107.731 96.7869 108.638C95.9782 109.546 95.0203 110 93.9172 110H4.08284C2.97576 110 2.02179 109.546 1.21308 108.638C0.404359 107.731 0 106.656 0 105.413V4.5826C0 3.34001 0.404359 2.26486 1.21308 1.36156C2.02179 0.45826 2.97969 0 4.08284 0H93.9172C95.0242 0 95.9821 0.453854 96.7869 1.36156C97.5917 2.26927 98 3.34442 98 4.5826Z" fill="#292D32"/>
<circle cx="16" cy="17" r="3" fill="#D9D9D9"/>
<circle cx="24" cy="17" r="3" fill="#D9D9D9"/>
<circle cx="59" cy="17" r="3" fill="#D9D9D9"/>
<circle cx="66" cy="17" r="3" fill="#D9D9D9"/>
</svg>
