<svg id="visual" class="rounded-b-xl" viewBox="0 0 900 600" width="900" height="600" xmlns="http://www.w3.org/2000/svg" xmlns:xlink="http://www.w3.org/1999/xlink" version="1.1"><rect x="0" y="0" width="900" height="600" fill="#FFB577"></rect><defs><linearGradient id="grad1_0" x1="33.3%" y1="100%" x2="100%" y2="0%"><stop offset="20%" stop-color="#ffb577" stop-opacity="1"></stop><stop offset="80%" stop-color="#ffb577" stop-opacity="1"></stop></linearGradient></defs><defs><linearGradient id="grad2_0" x1="0%" y1="100%" x2="66.7%" y2="0%"><stop offset="20%" stop-color="#ffb577" stop-opacity="1"></stop><stop offset="80%" stop-color="#ffb577" stop-opacity="1"></stop></linearGradient></defs><g transform="translate(900, 600)"><path d="M-243.4 0C-222.6 -25.3 -201.7 -50.6 -191.2 -79.2C-180.7 -107.9 -180.6 -139.9 -166.2 -166.2C-151.8 -192.4 -123.2 -212.9 -93.1 -224.8C-63.1 -236.8 -31.5 -240.1 0 -243.4L0 0Z" fill="#032647"></path></g><g transform="translate(0, 0)"><path d="M243.4 0C232.7 28.2 222 56.4 212.5 88C203 119.7 194.6 154.8 172.1 172.1C149.6 189.4 112.9 188.8 81.9 197.7C50.9 206.6 25.4 225 0 243.4L0 0Z" fill="#032647"></path></g></svg>
