<svg xmlns="http://www.w3.org/2000/svg" version="1.1" xmlns:xlink="http://www.w3.org/1999/xlink" xmlns:svgjs="http://svgjs.dev/svgjs" viewBox="0 0 800 800"><rect width="100%" height="100%" fill="#ffe6d1"></rect><g fill="hsl(265, 55%, 20%)"><rect width="90" height="1" x="551" y="740.5" rx="0.5" transform="rotate(45, 596, 741)"></rect><rect width="199" height="1" x="293.5" y="241.5" rx="0.5" transform="rotate(45, 393, 242)"></rect><rect width="201" height="1" x="279.5" y="476.5" rx="0.5" transform="rotate(45, 380, 477)"></rect><rect width="100" height="1" x="403" y="683.5" rx="0.5" transform="rotate(45, 453, 684)"></rect><rect width="216" height="1" x="616" y="660.5" rx="0.5" transform="rotate(45, 724, 661)"></rect><rect width="245" height="1" x="-59.5" y="278.5" rx="0.5" transform="rotate(45, 63, 279)"></rect><rect width="136" height="1" x="-45" y="325.5" rx="0.5" transform="rotate(45, 23, 326)"></rect><rect width="209" height="1" x="286.5" y="93.5" rx="0.5" transform="rotate(45, 391, 94)"></rect><rect width="331" height="1" x="390.5" y="295.5" rx="0.5" transform="rotate(45, 556, 296)"></rect><rect width="118" height="1" x="165" y="638.5" rx="0.5" transform="rotate(45, 224, 639)"></rect><rect width="86" height="1" x="276" y="221.5" rx="0.5" transform="rotate(45, 319, 222)"></rect><rect width="66" height="1" x="713" y="563.5" rx="0.5" transform="rotate(45, 746, 564)"></rect><rect width="120" height="1" x="405" y="316.5" rx="0.5" transform="rotate(45, 465, 317)"></rect><rect width="195" height="1" x="225.5" y="678.5" rx="0.5" transform="rotate(45, 323, 679)"></rect><rect width="85" height="1" x="118.5" y="608.5" rx="0.5" transform="rotate(45, 161, 609)"></rect><rect width="233" height="1" x="33.5" y="98.5" rx="0.5" transform="rotate(45, 150, 99)"></rect><rect width="41" height="1" x="237.5" y="238.5" rx="0.5" transform="rotate(45, 258, 239)"></rect><rect width="313" height="1" x="505.5" y="348.5" rx="0.5" transform="rotate(45, 662, 349)"></rect><rect width="87" height="1" x="596.5" y="233.5" rx="0.5" transform="rotate(45, 640, 234)"></rect><rect width="274" height="1" x="-71" y="177.5" rx="0.5" transform="rotate(45, 66, 178)"></rect><rect width="162" height="1" x="14" y="27.5" rx="0.5" transform="rotate(45, 95, 28)"></rect><rect width="75" height="1" x="185.5" y="424.5" rx="0.5" transform="rotate(45, 223, 425)"></rect><rect width="129" height="1" x="125.5" y="29.5" rx="0.5" transform="rotate(45, 190, 30)"></rect><rect width="157" height="1" x="413.5" y="760.5" rx="0.5" transform="rotate(45, 492, 761)"></rect><rect width="47" height="1" x="12.5" y="616.5" rx="0.5" transform="rotate(45, 36, 617)"></rect><rect width="176" height="1" x="278" y="368.5" rx="0.5" transform="rotate(45, 366, 369)"></rect><rect width="70" height="1" x="4" y="74.5" rx="0.5" transform="rotate(45, 39, 75)"></rect><rect width="71" height="1" x="354.5" y="561.5" rx="0.5" transform="rotate(45, 390, 562)"></rect><rect width="155" height="1" x="320.5" y="412.5" rx="0.5" transform="rotate(45, 398, 413)"></rect><rect width="71" height="1" x="550.5" y="504.5" rx="0.5" transform="rotate(45, 586, 505)"></rect><rect width="123" height="1" x="58.5" y="657.5" rx="0.5" transform="rotate(45, 120, 658)"></rect><rect width="208" height="1" x="-69" y="438.5" rx="0.5" transform="rotate(45, 35, 439)"></rect><rect width="139" height="1" x="40.5" y="716.5" rx="0.5" transform="rotate(45, 110, 717)"></rect><rect width="121" height="1" x="193.5" y="81.5" rx="0.5" transform="rotate(45, 254, 82)"></rect><rect width="77" height="1" x="330.5" y="757.5" rx="0.5" transform="rotate(45, 369, 758)"></rect><rect width="150" height="1" x="328" y="29.5" rx="0.5" transform="rotate(45, 403, 30)"></rect><rect width="68" height="1" x="171" y="293.5" rx="0.5" transform="rotate(45, 205, 294)"></rect><rect width="81" height="1" x="660.5" y="49.5" rx="0.5" transform="rotate(45, 701, 50)"></rect><rect width="150" height="1" x="659" y="750.5" rx="0.5" transform="rotate(45, 734, 751)"></rect><rect width="338" height="1" x="374" y="174.5" rx="0.5" transform="rotate(45, 543, 175)"></rect><rect width="39" height="1" x="268.5" y="28.5" rx="0.5" transform="rotate(45, 288, 29)"></rect><rect width="254" height="1" x="33" y="368.5" rx="0.5" transform="rotate(45, 160, 369)"></rect><rect width="158" height="1" x="9" y="386.5" rx="0.5" transform="rotate(45, 88, 387)"></rect><rect width="130" height="1" x="430" y="611.5" rx="0.5" transform="rotate(45, 495, 612)"></rect><rect width="212" height="1" x="22" y="469.5" rx="0.5" transform="rotate(45, 128, 470)"></rect><rect width="329" height="1" x="452.5" y="624.5" rx="0.5" transform="rotate(45, 617, 625)"></rect><rect width="131" height="1" x="17.5" y="768.5" rx="0.5" transform="rotate(45, 83, 769)"></rect><rect width="88" height="1" x="709" y="272.5" rx="0.5" transform="rotate(45, 753, 273)"></rect><rect width="45" height="1" x="448.5" y="416.5" rx="0.5" transform="rotate(45, 471, 417)"></rect><rect width="82" height="1" x="260" y="576.5" rx="0.5" transform="rotate(45, 301, 577)"></rect><rect width="259" height="1" x="8.5" y="262.5" rx="0.5" transform="rotate(45, 138, 263)"></rect><rect width="237" height="1" x="161.5" y="140.5" rx="0.5" transform="rotate(45, 280, 141)"></rect><rect width="132" height="1" x="178" y="361.5" rx="0.5" transform="rotate(45, 244, 362)"></rect><rect width="122" height="1" x="141" y="484.5" rx="0.5" transform="rotate(45, 202, 485)"></rect><rect width="131" height="1" x="498.5" y="398.5" rx="0.5" transform="rotate(45, 564, 399)"></rect><rect width="100" height="1" x="-7" y="526.5" rx="0.5" transform="rotate(45, 43, 527)"></rect><rect width="149" height="1" x="296.5" y="159.5" rx="0.5" transform="rotate(45, 371, 160)"></rect><rect width="100" height="1" x="488" y="62.5" rx="0.5" transform="rotate(45, 538, 63)"></rect><rect width="230" height="1" x="367" y="516.5" rx="0.5" transform="rotate(45, 482, 517)"></rect><rect width="110" height="1" x="161" y="714.5" rx="0.5" transform="rotate(45, 216, 715)"></rect><rect width="182" height="1" x="117" y="772.5" rx="0.5" transform="rotate(45, 208, 773)"></rect><rect width="298" height="1" x="45" y="181.5" rx="0.5" transform="rotate(45, 194, 182)"></rect><rect width="115" height="1" x="-24.5" y="687.5" rx="0.5" transform="rotate(45, 33, 688)"></rect><rect width="42" height="1" x="0" y="761.5" rx="0.5" transform="rotate(45, 21, 762)"></rect><rect width="336" height="1" x="525" y="469.5" rx="0.5" transform="rotate(45, 693, 470)"></rect><rect width="191" height="1" x="360.5" y="199.5" rx="0.5" transform="rotate(45, 456, 200)"></rect><rect width="100" height="1" x="234" y="297.5" rx="0.5" transform="rotate(45, 284, 298)"></rect><rect width="62" height="1" x="278" y="354.5" rx="0.5" transform="rotate(45, 309, 355)"></rect><rect width="143" height="1" x="690.5" y="403.5" rx="0.5" transform="rotate(45, 762, 404)"></rect><rect width="324" height="1" x="558" y="150.5" rx="0.5" transform="rotate(45, 720, 151)"></rect><rect width="60" height="1" x="68" y="574.5" rx="0.5" transform="rotate(45, 98, 575)"></rect><rect width="182" height="1" x="86" y="547.5" rx="0.5" transform="rotate(45, 177, 548)"></rect><rect width="259" height="1" x="175.5" y="443.5" rx="0.5" transform="rotate(45, 305, 444)"></rect><rect width="151" height="1" x="300.5" y="302.5" rx="0.5" transform="rotate(45, 376, 303)"></rect><rect width="92" height="1" x="214" y="514.5" rx="0.5" transform="rotate(45, 260, 515)"></rect></g></svg>