<svg id="visual" viewBox="0 0 540 960" width="540" height="960" xmlns="http://www.w3.org/2000/svg" xmlns:xlink="http://www.w3.org/1999/xlink" version="1.1"><path d="M0 126L49 126L49 145L98 145L98 145L147 145L147 107L196 107L196 68L245 68L245 97L295 97L295 155L344 155L344 164L393 164L393 78L442 78L442 78L491 78L491 116L540 116L540 107L540 0L540 0L491 0L491 0L442 0L442 0L393 0L393 0L344 0L344 0L295 0L295 0L245 0L245 0L196 0L196 0L147 0L147 0L98 0L98 0L49 0L49 0L0 0Z" fill="#fff8f3"></path><path d="M0 452L49 452L49 443L98 443L98 318L147 318L147 462L196 462L196 260L245 260L245 404L295 404L295 366L344 366L344 356L393 356L393 395L442 395L442 385L491 385L491 366L540 366L540 366L540 105L540 114L491 114L491 76L442 76L442 76L393 76L393 162L344 162L344 153L295 153L295 95L245 95L245 66L196 66L196 105L147 105L147 143L98 143L98 143L49 143L49 124L0 124Z" fill="#ffe7d3"></path><path d="M0 558L49 558L49 625L98 625L98 414L147 414L147 567L196 567L196 414L245 414L245 529L295 529L295 491L344 491L344 529L393 529L393 596L442 596L442 539L491 539L491 481L540 481L540 510L540 364L540 364L491 364L491 383L442 383L442 393L393 393L393 354L344 354L344 364L295 364L295 402L245 402L245 258L196 258L196 460L147 460L147 316L98 316L98 441L49 441L49 450L0 450Z" fill="#ffd6b4"></path><path d="M0 827L49 827L49 779L98 779L98 836L147 836L147 721L196 721L196 721L245 721L245 788L295 788L295 731L344 731L344 769L393 769L393 769L442 769L442 702L491 702L491 827L540 827L540 817L540 508L540 479L491 479L491 537L442 537L442 594L393 594L393 527L344 527L344 489L295 489L295 527L245 527L245 412L196 412L196 565L147 565L147 412L98 412L98 623L49 623L49 556L0 556Z" fill="#ffc695"></path><path d="M0 961L49 961L49 961L98 961L98 961L147 961L147 961L196 961L196 961L245 961L245 961L295 961L295 961L344 961L344 961L393 961L393 961L442 961L442 961L491 961L491 961L540 961L540 961L540 815L540 825L491 825L491 700L442 700L442 767L393 767L393 767L344 767L344 729L295 729L295 786L245 786L245 719L196 719L196 719L147 719L147 834L98 834L98 777L49 777L49 825L0 825Z" fill="#ffb577"></path></svg>